<svg width="75" height="75" viewBox="0 0 75 75" fill="none" xmlns="http://www.w3.org/2000/svg">
<g id="Loading 3">
<path id="Ellipse 15" d="M2.8125 37.5C1.2592 37.5 -0.0109762 38.761 0.105403 40.3099C0.588303 46.7371 2.72154 52.9486 6.31989 58.3339C10.4404 64.5007 16.2971 69.3072 23.1494 72.1455C30.0016 74.9838 37.5416 75.7264 44.8159 74.2794C52.0902 72.8325 58.772 69.261 64.0165 64.0165C69.261 58.772 72.8325 52.0902 74.2794 44.8159C75.7264 37.5416 74.9838 30.0016 72.1455 23.1494C69.3072 16.2971 64.5007 10.4404 58.3339 6.31989C52.9486 2.72154 46.7371 0.588305 40.3099 0.105403C38.761 -0.010976 37.5 1.2592 37.5 2.8125C37.5 4.3658 38.7617 5.61211 40.3089 5.74899C45.6222 6.21901 50.7488 8.01685 55.2088 10.9969C60.4506 14.4994 64.5361 19.4776 66.9487 25.302C69.3612 31.1264 69.9924 37.5354 68.7625 43.7185C67.5326 49.9016 64.4968 55.5812 60.039 60.039C55.5812 64.4968 49.9016 67.5326 43.7185 68.7625C37.5354 69.9924 31.1264 69.3612 25.302 66.9487C19.4776 64.5361 14.4994 60.4506 10.9969 55.2088C8.01685 50.7488 6.21901 45.6222 5.74899 40.3089C5.61211 38.7617 4.3658 37.5 2.8125 37.5Z" fill="url(#paint0_angular_56_347)"/>
</g>
<defs>
<radialGradient id="paint0_angular_56_347" cx="0" cy="0" r="1" gradientUnits="userSpaceOnUse" gradientTransform="translate(37.5 37.5) rotate(164.055) scale(34.1255 31.8988)">
<stop stop-color="white"/>
<stop offset="0.302083" stop-color="#D30010"/>
</radialGradient>
</defs>
</svg>
