<svg width="14" height="14" viewBox="0 0 14 14" fill="none" xmlns="http://www.w3.org/2000/svg">
<g clip-path="url(#clip0_176_585)">
<path d="M7.00009 13.9086C3.19094 13.9086 0.0915527 10.8097 0.0915527 7.00039C0.0915527 3.19108 3.19094 0.0915527 7.00009 0.0915527C10.8092 0.0915527 13.9086 3.19108 13.9086 7.00039C13.9086 10.8097 10.8092 13.9092 7.00009 13.9092V13.9086ZM7.00009 0.88427C3.62753 0.88427 0.884236 3.62768 0.884236 7.00039C0.884236 10.3731 3.62753 13.1165 7.00009 13.1165C10.3727 13.1165 13.1159 10.3731 13.1159 7.00039C13.1159 3.62768 10.372 0.88427 7.00009 0.88427Z" fill="#A90303"/>
<path d="M7.00003 13.9695C3.15674 13.9695 0.0305176 10.8432 0.0305176 7.00033C0.0305176 3.15748 3.15674 0.0305176 7.00003 0.0305176C10.8433 0.0305176 13.9695 3.15687 13.9695 7.00033C13.9695 10.8438 10.8433 13.9701 7.00003 13.9701V13.9695ZM7.00003 0.152474C3.22442 0.152474 0.152469 3.22456 0.152469 7.00033C0.152469 10.7761 3.22442 13.8482 7.00003 13.8482C10.7756 13.8482 13.8476 10.7761 13.8476 7.00033C13.8476 3.22456 10.7756 0.152474 7.00003 0.152474ZM7.00003 13.1768C3.59393 13.1768 0.8232 10.406 0.8232 6.99972C0.8232 3.59348 3.59393 0.823235 7.00003 0.823235C10.4061 0.823235 13.1769 3.59409 13.1769 7.00033C13.1769 10.4066 10.4061 13.1774 7.00003 13.1774V13.1768ZM7.00003 0.945192C3.66101 0.945192 0.945152 3.66116 0.945152 7.00033C0.945152 10.3395 3.66101 13.0555 7.00003 13.0555C10.3391 13.0555 13.0549 10.3395 13.0549 7.00033C13.0549 3.66116 10.3384 0.945192 7.00003 0.945192Z" fill="#A90303"/>
<path d="M7.00006 13.9391C3.17384 13.9391 0.0610352 10.8267 0.0610352 7.00036C0.0610352 3.17398 3.17384 0.0610352 7.00006 0.0610352C10.8263 0.0610352 13.9391 3.17398 13.9391 7.00036C13.9391 10.8267 10.8263 13.9397 7.00006 13.9397V13.9391ZM7.00006 0.122013C3.20738 0.122013 0.122011 3.20751 0.122011 7.00036C0.122011 10.7932 3.20738 13.8787 7.00006 13.8787C10.7927 13.8787 13.8781 10.7932 13.8781 7.00036C13.8781 3.20751 10.7921 0.122013 7.00006 0.122013ZM7.00006 13.1464C3.61104 13.1464 0.853718 10.3889 0.853718 6.99975C0.853718 3.61058 3.61104 0.853753 7.00006 0.853753C10.3891 0.853753 13.1464 3.61119 13.1464 7.00036C13.1464 10.3895 10.3891 13.147 7.00006 13.147V13.1464ZM7.00006 0.914731C3.64457 0.914731 0.914694 3.64473 0.914694 7.00036C0.914694 10.356 3.64457 13.086 7.00006 13.086C10.3555 13.086 13.0854 10.356 13.0854 7.00036C13.0854 3.64473 10.3555 0.914731 7.00006 0.914731Z" fill="#A90303"/>
<path d="M7 14C3.14024 14 0 10.8602 0 7.0003C0 3.14038 3.14024 0 7 0C10.8598 0 14 3.14038 14 7.0003C14 10.8602 10.8598 14.0006 7 14.0006V14ZM7 0.182935C3.24085 0.182935 0.182927 3.24099 0.182927 7.0003C0.182927 10.7596 3.24085 13.8177 7 13.8177C10.7591 13.8177 13.8171 10.7596 13.8171 7.0003C13.8171 3.24099 10.7585 0.182935 7 0.182935ZM7 13.2073C3.57744 13.2073 0.792683 10.4224 0.792683 6.99969C0.792683 3.57698 3.57744 0.792717 7 0.792717C10.4226 0.792717 13.2073 3.57759 13.2073 7.0003C13.2073 10.423 10.4226 13.2079 7 13.2079V13.2073ZM7 0.975652C3.67805 0.975652 0.97561 3.67821 0.97561 7.0003C0.97561 10.3224 3.67805 13.025 7 13.025C10.322 13.025 13.0244 10.3224 13.0244 7.0003C13.0244 3.67821 10.3213 0.975652 7 0.975652Z" fill="#A90303"/>
<path d="M5.20557 5.35216C5.20557 4.20577 5.9074 3.37524 7.06349 3.37524C8.27935 3.37524 8.92142 4.14601 8.92142 5.2924C8.92142 6.08329 8.51593 6.50831 7.91349 6.97235C7.49825 7.28883 7.08361 7.52603 7.08361 8.23765V8.5834L6.50069 8.59315V8.06935C6.50069 7.25895 7.03422 6.88332 7.49886 6.5077C7.90435 6.18146 8.27935 5.84547 8.27935 5.29179C8.27935 4.45151 7.84459 4.01674 7.06349 4.01674C6.2824 4.01674 5.76898 4.51066 5.76898 5.35094H5.20557V5.35216ZM6.79642 9.65113C7.02386 9.65113 7.21166 9.83894 7.21166 10.0664C7.21166 10.2938 7.02386 10.4914 6.79642 10.4914C6.56898 10.4914 6.37142 10.3036 6.37142 10.0664C6.37142 9.82918 6.55922 9.65113 6.79642 9.65113Z" fill="#A90303"/>
<path d="M6.79697 10.5523C6.52441 10.5523 6.31099 10.3389 6.31099 10.0663C6.31099 9.79376 6.52929 9.59009 6.79697 9.59009C7.06465 9.59009 7.27319 9.80352 7.27319 10.0663C7.27319 10.3291 7.05977 10.5523 6.79697 10.5523ZM6.79697 9.71205C6.59636 9.71205 6.43295 9.8712 6.43295 10.0663C6.43295 10.2615 6.5927 10.4304 6.79697 10.4304C7.00124 10.4304 7.15124 10.267 7.15124 10.0663C7.15124 9.86571 6.9927 9.71205 6.79697 9.71205ZM6.43965 8.65591V8.0699C6.43965 7.27902 6.93721 6.88083 7.37563 6.52898L7.46038 6.4613C7.87502 6.12714 8.21831 5.80883 8.21831 5.29295C8.21831 4.49902 7.81892 4.07888 7.06343 4.07888C6.30795 4.07888 5.8299 4.55512 5.8299 5.3521V5.41308H5.14453V5.3521C5.14453 4.13315 5.91587 3.31421 7.06343 3.31421C8.21099 3.31421 8.98234 4.05388 8.98234 5.29234C8.98234 6.07287 8.60429 6.5174 7.95063 7.02108C7.91221 7.05035 7.8738 7.07901 7.83599 7.10706C7.46465 7.38329 7.14392 7.62232 7.14392 8.23759V8.64371L6.43904 8.65591H6.43965ZM7.06404 3.95692C7.88721 3.95692 8.34087 4.43133 8.34087 5.29295C8.34087 5.86188 7.96099 6.21495 7.53721 6.55581L7.45246 6.62411C7.01465 6.97473 6.56221 7.33755 6.56221 8.0699V8.53151L7.02319 8.52358V8.23759C7.02319 7.56074 7.38295 7.29243 7.76404 7.00888C7.80185 6.98083 7.83965 6.95278 7.87746 6.92412C8.51526 6.43264 8.8616 6.02652 8.8616 5.29234C8.8616 4.1301 8.18965 3.43617 7.06465 3.43617C5.93965 3.43617 5.2927 4.16181 5.26831 5.29112H5.70977C5.73417 4.46609 6.24819 3.95692 7.06465 3.95692H7.06404Z" fill="#A90303"/>
<path d="M6.797 10.5217C6.54151 10.5217 6.34151 10.3217 6.34151 10.0662C6.34151 9.81074 6.54578 9.62049 6.797 9.62049C7.04822 9.62049 7.24273 9.8205 7.24273 10.0662C7.24273 10.312 7.04273 10.5217 6.797 10.5217ZM6.797 9.68147C6.57932 9.68147 6.40249 9.85403 6.40249 10.0662C6.40249 10.2784 6.57566 10.4608 6.797 10.4608C7.01834 10.4608 7.18176 10.2839 7.18176 10.0662C7.18176 9.84855 7.0092 9.68147 6.797 9.68147ZM6.47017 8.62471V8.06981C6.47017 7.29356 6.96163 6.90025 7.39517 6.55267L7.47993 6.48437C7.90066 6.14534 8.24944 5.82215 8.24944 5.29225C8.24944 4.47819 7.83968 4.04768 7.06407 4.04768C6.28846 4.04768 5.80005 4.5349 5.80005 5.3514V5.38189H5.17566V5.3514C5.17566 4.15074 5.93481 3.34399 7.06407 3.34399C8.19334 3.34399 8.95249 4.07207 8.95249 5.29164C8.95249 6.05997 8.57871 6.4984 7.93237 6.99598C7.89395 7.02525 7.85615 7.0533 7.81834 7.08196C7.44029 7.36307 7.11407 7.60638 7.11407 8.23689V8.61252L6.47017 8.62349V8.62471ZM7.06407 3.98731C7.86773 3.98731 8.31042 4.45075 8.31042 5.29286C8.31042 5.84959 7.95188 6.18314 7.51834 6.53255L7.43359 6.60084C6.99029 6.95635 6.53176 7.32344 6.53176 8.07042V8.56312L7.05371 8.55459V8.23872C7.05371 7.57711 7.40737 7.31368 7.78237 7.0344C7.82017 7.00635 7.85798 6.9783 7.89578 6.94903C8.54151 6.45145 8.89212 6.03984 8.89212 5.29286C8.89212 4.1111 8.2092 3.40619 7.06468 3.40619C5.98115 3.40619 5.25005 4.17452 5.23724 5.32213H5.73968C5.75127 4.48612 6.24456 3.98792 7.06468 3.98792L7.06407 3.98731Z" fill="#A90303"/>
<path d="M6.79694 10.5828C6.50731 10.5828 6.28048 10.3559 6.28048 10.0663C6.28048 9.77666 6.51219 9.55957 6.79694 9.55957C7.0817 9.55957 7.30365 9.78702 7.30365 10.0663C7.30365 10.3456 7.07621 10.5828 6.79694 10.5828ZM6.79694 9.74251C6.61279 9.74251 6.4634 9.88764 6.4634 10.0663C6.4634 10.245 6.60975 10.3999 6.79694 10.3999C6.98414 10.3999 7.12072 10.2505 7.12072 10.0663C7.12072 9.88215 6.9756 9.74251 6.79694 9.74251ZM6.40914 8.68636V8.06926C6.40914 7.26374 6.91279 6.86068 7.3567 6.50456L7.44145 6.43627C7.84999 6.10759 8.1884 5.79417 8.1884 5.2917C8.1884 4.5063 7.81036 4.10812 7.06401 4.10812C6.31767 4.10812 5.86097 4.57277 5.86097 5.35085V5.44232H5.11462V5.35085C5.11462 4.1136 5.89816 3.28247 7.06401 3.28247C8.22987 3.28247 9.0134 4.03372 9.0134 5.29109C9.0134 6.08442 8.63048 6.53444 7.9695 7.04361C7.93048 7.07288 7.89267 7.10154 7.85426 7.1302C7.47438 7.41253 7.17499 7.63632 7.17499 8.23635V8.67234L6.40914 8.68514V8.68636ZM7.06401 3.92579C7.9067 3.92579 8.37133 4.41118 8.37133 5.29231C8.37133 5.87588 8.00243 6.2204 7.5567 6.57896L7.47194 6.64725C7.03962 6.99361 6.59267 7.35155 6.59267 8.06926V8.50038L6.99267 8.49367V8.23756C6.99267 7.54546 7.3756 7.26008 7.74572 6.98446C7.78353 6.95641 7.82133 6.92836 7.85914 6.8997C8.48962 6.41431 8.83109 6.01369 8.83109 5.29231C8.83109 4.14897 8.17072 3.46662 7.06462 3.46662C6.03962 3.46662 5.33719 4.18495 5.29999 5.26061H5.68048C5.71523 4.42398 6.22926 3.9264 7.06462 3.9264L7.06401 3.92579Z" fill="#A90303"/>
</g>
<defs>
<clipPath id="clip0_176_585">
<rect width="14" height="14" fill="white"/>
</clipPath>
</defs>
</svg>
