<svg width="11" height="12" viewBox="0 0 11 12" fill="none" xmlns="http://www.w3.org/2000/svg">
<path d="M8.3125 4.88889V3.77778C8.3125 2.24365 7.0533 1 5.5 1C3.9467 1 2.6875 2.24365 2.6875 3.77778V4.88889M5.5 7.38889V8.5M3.7 11H7.3C8.24509 11 8.71763 11 9.07861 10.8183C9.39613 10.6586 9.65429 10.4036 9.81607 10.09C10 9.73346 10 9.26675 10 8.33333V7.55556C10 6.62213 10 6.15542 9.81607 5.7989C9.65429 5.4853 9.39613 5.23033 9.07861 5.07054C8.71763 4.88889 8.24509 4.88889 7.3 4.88889H3.7C2.75491 4.88889 2.28237 4.88889 1.92139 5.07054C1.60387 5.23033 1.34571 5.4853 1.18393 5.7989C1 6.15542 1 6.62214 1 7.55556V8.33333C1 9.26675 1 9.73346 1.18393 10.09C1.34571 10.4036 1.60387 10.6586 1.92139 10.8183C2.28237 11 2.75491 11 3.7 11Z" stroke="#D30010" stroke-linecap="round" stroke-linejoin="round"/>
</svg>
