<svg width="14" height="13" viewBox="0 0 14 13" fill="none" xmlns="http://www.w3.org/2000/svg">
<g clip-path="url(#clip0_176_534)">
<path d="M1.59818 9.14908C1.4477 9.13303 1.30658 9.13077 1.17093 9.10143C0.4782 8.95158 0.00123017 8.33611 0.000743964 7.59424C-0.000471556 5.57555 -0.00071466 3.55685 0.000865516 1.53816C0.00147328 0.750897 0.532048 0.124397 1.28737 0.0126654C1.35131 0.00326041 1.41658 0.000501601 1.48125 0.000501601C4.38184 0 7.28256 0 10.1832 0C11.0222 0 11.6735 0.672396 11.6736 1.53966C11.6738 3.55836 11.6738 5.57705 11.6736 7.59575C11.6736 8.46302 11.0231 9.13541 10.1833 9.13566C8.61343 9.13604 7.04359 9.13554 5.47375 9.13742C5.4329 9.13742 5.38538 9.15247 5.35219 9.17667C4.32338 9.9302 3.29566 10.6854 2.26878 11.4418C2.12608 11.5469 1.9773 11.5776 1.81868 11.4938C1.65969 11.4098 1.59733 11.2658 1.59769 11.0858C1.59879 10.4672 1.59806 9.84869 1.59806 9.23009V9.14921L1.59818 9.14908ZM2.40675 10.3105C2.42911 10.2967 2.44127 10.2902 2.45245 10.2821C3.30538 9.65545 4.15867 9.02932 5.01027 8.40094C5.10362 8.3321 5.20183 8.29949 5.31561 8.29962C6.93614 8.30062 8.55655 8.3005 10.1771 8.30012C10.5758 8.30012 10.8635 8.0028 10.8635 7.59224C10.8637 5.57354 10.8637 3.55485 10.8635 1.53615C10.8635 1.1355 10.5712 0.834539 10.1827 0.834539C7.28803 0.834539 4.39339 0.834539 1.49887 0.834539C1.10164 0.834539 0.811618 1.13199 0.811496 1.54217C0.81101 3.56087 0.81101 5.57956 0.811496 7.59826C0.811496 8.00092 1.10091 8.29837 1.49182 8.30012C1.65385 8.30087 1.81588 8.29974 1.97803 8.30025C2.23912 8.30125 2.40675 8.47505 2.40687 8.74454C2.40699 9.20012 2.40687 9.6557 2.40687 10.1113V10.3105H2.40675Z" fill="#A90303"/>
<path d="M11.5923 11.7711V11.6917C11.5923 11.1964 11.5923 10.7012 11.5923 10.2058C11.5923 9.93296 11.7597 9.76078 12.0258 9.76016C12.1859 9.75965 12.3458 9.76016 12.5059 9.76016C12.8957 9.75953 13.1872 9.46133 13.1875 9.05967C13.1882 7.89144 13.1878 6.72321 13.1878 5.55498C13.1878 4.71066 13.188 3.86634 13.1878 3.02215C13.1878 2.59905 12.9295 2.31802 12.52 2.2942C12.2846 2.28053 12.1123 2.09306 12.1223 1.86119C12.1324 1.62594 12.3136 1.45577 12.5502 1.45953C13.3493 1.47195 13.9964 2.14322 13.9977 2.97437C14.0009 5.00987 14.0009 7.04537 13.9976 9.08086C13.9963 9.92732 13.335 10.5959 12.5133 10.5954C12.4793 10.5954 12.4451 10.5954 12.4019 10.5954C12.4019 10.6273 12.4019 10.6535 12.4019 10.6798C12.4019 11.3006 12.4022 11.9212 12.4013 12.5419C12.4009 12.78 12.2829 12.9455 12.0813 12.9905C11.9551 13.0188 11.8425 12.9842 11.7378 12.907C11.224 12.5275 10.7089 12.1498 10.1942 11.7715C9.67802 11.392 9.16203 11.0119 8.64434 10.6344C8.61249 10.6112 8.56715 10.5971 8.52801 10.597C7.50297 10.5949 6.47804 10.5956 5.45299 10.5951C5.23626 10.5951 5.07277 10.4595 5.03509 10.2519C4.99109 10.0091 5.16686 9.77658 5.40607 9.76154C5.42831 9.76016 5.45056 9.76016 5.47292 9.76016C6.54453 9.76016 7.61613 9.76053 8.68773 9.7594C8.79956 9.7594 8.89619 9.79188 8.98748 9.85922C9.83932 10.4875 10.6925 11.1139 11.5453 11.7406C11.5566 11.7489 11.5689 11.7559 11.5923 11.7712V11.7711Z" fill="#A90303"/>
<path d="M5.83793 3.73194C6.22969 3.73281 6.54767 4.06337 6.54597 4.46816C6.54427 4.86844 6.22252 5.19699 5.83477 5.19448C5.44568 5.19197 5.12733 4.86142 5.12916 4.46164C5.13086 4.06073 5.45115 3.73106 5.83805 3.73194H5.83793Z" fill="#A90303"/>
<path d="M3.81636 4.46353C3.81661 4.86619 3.50106 5.19323 3.11112 5.19448C2.72264 5.19574 2.40356 4.86794 2.40223 4.46616C2.40089 4.06149 2.72081 3.73031 3.11148 3.73194C3.50142 3.73357 3.81624 4.06011 3.81636 4.4634V4.46353Z" fill="#A90303"/>
<path d="M7.8584 4.45604C7.86265 4.05376 8.1844 3.72734 8.57154 3.73223C8.96732 3.73725 9.27715 4.06768 9.27302 4.47999C9.26901 4.87463 8.94216 5.20092 8.55757 5.1944C8.16678 5.18775 7.85427 4.8577 7.85852 4.45604H7.8584Z" fill="#A90303"/>
</g>
<defs>
<clipPath id="clip0_176_534">
<rect width="14" height="13" fill="white"/>
</clipPath>
</defs>
</svg>
