<svg width="21" height="25" viewBox="0 0 21 25" fill="none" xmlns="http://www.w3.org/2000/svg">
<path d="M20 24C20 21.6185 20 20.4278 19.6143 19.4885C19.1001 18.2361 18.1137 17.2411 16.8723 16.7224C15.9412 16.3333 14.7608 16.3333 12.4 16.3333H8.6C6.23923 16.3333 5.05884 16.3333 4.12774 16.7224C2.88626 17.2411 1.89991 18.2361 1.38568 19.4885C1 20.4278 1 21.6185 1 24M15.5667 6.11111C15.5667 8.9339 13.2982 11.2222 10.5 11.2222C7.70176 11.2222 5.43333 8.9339 5.43333 6.11111C5.43333 3.28832 7.70176 1 10.5 1C13.2982 1 15.5667 3.28832 15.5667 6.11111Z" stroke="#A90303" stroke-width="2" stroke-linecap="round" stroke-linejoin="round"/>
</svg>
