<svg width="46" height="46" viewBox="0 0 46 46" fill="none" xmlns="http://www.w3.org/2000/svg">
<g clip-path="url(#clip0_176_397)">
<path d="M23 46C35.7025 46 46 35.7025 46 23C46 10.2975 35.7025 0 23 0C10.2975 0 0 10.2975 0 23C0 35.7025 10.2975 46 23 46Z" fill="#BF2222"/>
<path d="M16.8282 24.4834H9.41934C9.14253 24.4834 8.9187 24.2132 8.9187 23.8795C8.9187 23.5457 9.14253 23.2755 9.41934 23.2755H16.8282C17.105 23.2755 17.3288 23.5457 17.3288 23.8795C17.3288 24.2132 17.105 24.4834 16.8282 24.4834Z" fill="#FCEE21"/>
<path d="M17.8917 20.2095H10.4828C10.206 20.2095 9.98218 19.9393 9.98218 19.6055C9.98218 19.2718 10.206 19.0016 10.4828 19.0016H17.8917C18.1685 19.0016 18.3923 19.2718 18.3923 19.6055C18.3923 19.9393 18.1685 20.2095 17.8917 20.2095Z" fill="#FCEE21"/>
<path d="M15.023 28.7573H7.61416C7.33735 28.7573 7.11353 28.4871 7.11353 28.1534C7.11353 27.8196 7.33735 27.5494 7.61416 27.5494H15.023C15.2998 27.5494 15.5236 27.8196 15.5236 28.1534C15.5236 28.4871 15.2998 28.7573 15.023 28.7573Z" fill="#FCEE21"/>
<path d="M38.86 15.423C38.8269 14.9263 38.5567 14.5462 38.0587 14.2972C37.7051 14.1078 37.2151 14.0085 36.6429 14.0085H36.574C35.6483 14.0323 34.6616 14.3171 33.7914 14.8098C33.3371 15.1038 33.0007 15.374 32.7041 15.6826C31.7478 15.468 30.8631 15.219 30.0075 14.978L29.8658 14.9369C28.0805 14.3992 26.5786 13.986 24.8952 13.986C23.9059 13.986 22.8914 14.419 22.1126 15.174C21.2994 15.9607 20.8292 16.9315 20.7829 17.9089C20.7379 18.6188 20.8504 19.2545 21.118 19.7909C21.3908 20.3816 21.8252 20.8505 22.4133 21.1802C22.9483 21.4835 23.5893 21.6557 24.2661 21.6822C24.3496 21.6849 24.4357 21.6875 24.5217 21.6875C25.3628 21.6875 26.2832 21.4769 27.1136 21.0942C27.262 21.0253 27.3746 20.9034 27.4289 20.7498C27.4832 20.5962 27.4712 20.4267 27.4024 20.2863C27.3044 20.073 27.1017 19.9393 26.8686 19.9393C26.7759 19.9393 26.6845 19.9578 26.5984 19.9989C25.915 20.3101 25.1853 20.4796 24.5443 20.4796C24.4701 20.4796 24.3959 20.477 24.3244 20.473C23.8132 20.4518 23.3735 20.3326 23.0145 20.122C22.6464 19.9353 22.3788 19.6532 22.2093 19.2757C22.0371 18.9261 21.9682 18.5129 21.9894 17.9685C22.0318 17.2878 22.3907 16.5752 22.943 16.0653C23.498 15.513 24.2052 15.1978 24.8939 15.1978C26.4329 15.1978 27.8845 15.619 29.4195 16.0627L29.5228 16.0918C29.683 16.1395 29.8459 16.1845 30.0075 16.2322C30.6141 16.407 31.2406 16.5885 31.9054 16.7487C31.8909 16.7752 31.8789 16.8017 31.8697 16.8282C31.0167 18.3844 30.3876 20.3644 29.8777 21.9564L29.7863 22.2438C29.6592 22.6451 29.5307 23.0371 29.4234 23.3603H27.8474C27.5083 23.3603 27.2421 23.6357 27.2421 23.9867C27.2421 24.3377 27.5123 24.592 27.8474 24.592H29.0168C28.9877 24.6728 28.9612 24.7589 28.9334 24.8449C28.9122 24.9165 28.8884 24.988 28.8645 25.0582C27.805 28.3282 26.8064 31.4154 23.6026 31.4154H23.392C22.551 31.3532 21.8159 31.0141 21.3365 30.4645C20.8729 29.9148 20.6293 29.1904 20.6293 28.3745V28.2116C20.6889 27.258 21.0888 26.4144 21.8146 25.7138C22.5815 25.0092 23.6225 24.5681 24.5231 24.5681C24.8621 24.5681 25.1283 24.2927 25.1283 23.9417C25.1283 23.6092 24.8581 23.3364 24.5231 23.3364C23.2675 23.3629 21.9431 23.9271 20.9802 24.8476C20.3127 25.4767 19.5008 26.564 19.4187 28.1587V28.3494C19.3949 29.4447 19.7512 30.4791 20.416 31.2658C21.1617 32.0882 22.1735 32.5571 23.3404 32.6233H23.6489C27.703 32.6233 28.891 28.9679 30.0393 25.4317L30.0446 25.4144C30.1254 25.1496 30.2102 24.8767 30.3095 24.5893H34.9927C35.3277 24.5893 35.5979 24.3191 35.5979 23.9841C35.5979 23.6331 35.333 23.3576 34.9927 23.3576H30.7134C30.7903 23.1205 30.8671 22.8702 30.9399 22.6093L31.0207 22.3563C31.528 20.7948 32.1557 18.8519 32.9385 17.3964C33.0126 17.2652 33.0895 17.1288 33.1676 17.007C34.3026 17.1884 35.2973 17.2745 36.2946 17.2745C36.9594 17.2745 37.5541 17.1341 38.0163 16.8653C38.5858 16.5143 38.8838 16.0547 38.8838 15.5382C38.8838 15.5144 38.8838 15.4706 38.8573 15.4256L38.86 15.423ZM37.6548 15.5355C37.6548 15.6269 37.5594 15.7316 37.3939 15.8229C37.1237 15.9805 36.7462 16.0627 36.2959 16.0627C35.6694 16.0627 35.0403 16.0243 34.2947 15.9408C34.3331 15.917 34.3715 15.8931 34.4099 15.8733C35.0774 15.4786 35.8628 15.2415 36.578 15.2164H36.6429C37.0045 15.2164 37.3104 15.2786 37.5078 15.3859L37.5144 15.3912L37.5197 15.3938C37.6058 15.4269 37.6534 15.4865 37.6534 15.513V15.5369L37.6548 15.5355Z" fill="#FCEE21"/>
</g>
<defs>
<clipPath id="clip0_176_397">
<rect width="46" height="46" fill="white"/>
</clipPath>
</defs>
</svg>
