<svg width="218" height="55" viewBox="0 0 218 55" fill="none" xmlns="http://www.w3.org/2000/svg">
<g clip-path="url(#clip0_176_317)">
<path d="M73.3003 30.2241C73.4311 29.9364 73.5619 29.6399 73.6927 29.3609C73.5358 29.6312 73.405 29.9189 73.3003 30.2241ZM71.3383 27.8697H71.3296V27.8872L71.2773 28.0441C71.3906 27.8349 71.5127 27.6256 71.6435 27.4337C71.5214 27.5558 71.4168 27.6953 71.3383 27.8697Z" fill="#BF2222"/>
<path d="M70.7802 29.1429C70.9459 28.7679 71.1116 28.4104 71.2685 28.0703C71.0767 28.4191 70.9197 28.7766 70.7802 29.1429Z" fill="#BF2222"/>
<path d="M85.0636 22.1843C84.8456 21.7483 84.6101 21.321 84.366 20.9025C84.2439 20.6932 84.1305 20.4839 84.0085 20.2746C84.9589 19.1846 85.6304 18.1818 86.11 17.1267C86.3018 16.6994 86.5373 16.1326 86.6506 15.5571C86.7553 15.0601 86.8599 14.5369 86.8599 14.0485C86.7989 13.1417 86.5547 12.4877 86.11 12.0429C85.6478 11.4761 84.9677 11.1361 84.1218 11.075H84.1044C83.6509 11.075 83.1888 11.1884 82.7353 11.4151C82.3168 11.5895 81.8808 11.886 81.5756 12.1999C81.157 12.6185 80.8431 13.0632 80.6425 13.5253C80.6425 13.5253 80.5902 13.6038 80.5815 13.6649C80.3373 14.2229 80.2065 14.6851 80.1629 15.1647C79.9275 16.6209 80.1281 18.1121 80.7908 19.6991C80.2414 20.2572 79.6833 20.8589 79.134 21.5129C78.8985 21.8006 78.8026 22.1494 78.8375 22.5069C78.8724 22.8645 79.0381 23.1871 79.3258 23.4138C79.57 23.6231 79.8839 23.7452 80.2153 23.7452C80.6077 23.7452 80.9826 23.5708 81.2529 23.2743C81.4971 22.9517 81.7587 22.6377 82.0377 22.3413C82.1249 22.4895 82.2121 22.629 82.2993 22.786C82.4389 23.0301 82.5871 23.283 82.7441 23.5446C84.0259 25.7595 85.3513 28.0441 85.4124 30.4857V30.5293C85.3601 32.657 84.5927 34.4272 83.1713 35.6305C81.8459 36.6682 80.1281 37.2786 78.3492 37.3309H78.3056C78.1573 37.3309 78.0876 37.3309 77.9742 37.2961H77.9393L77.9045 37.2873C76.4744 37.1914 75.1577 36.581 74.2944 35.6044C73.4398 34.7062 72.9602 33.468 72.9602 32.1949V31.8809C73.0038 31.3141 73.1259 30.7561 73.3177 30.2241C73.4224 29.9189 73.5532 29.6399 73.7101 29.3609C73.7101 29.3609 73.7101 29.3434 73.7189 29.3434C73.9369 28.951 74.1897 28.5935 74.4949 28.2709C75.3495 27.364 76.4046 26.9018 77.6254 26.9018C78.2271 26.9018 78.8375 27.1896 79.2997 27.6953C79.788 28.236 80.067 28.9161 80.1106 29.7184C80.1106 30.477 80.6949 31.0613 81.4709 31.0613C82.247 31.0613 82.8313 30.477 82.8313 29.7009C82.7789 28.2447 82.2209 26.8495 81.3053 25.8816C80.2763 24.809 78.916 24.1899 77.5731 24.1899C75.5239 24.2422 73.7712 25.0096 72.4893 26.4048C72.1841 26.7187 71.9051 27.0675 71.6522 27.4425C71.5214 27.643 71.3993 27.8436 71.286 28.0529C71.286 28.0529 71.286 28.0616 71.286 28.0703C71.129 28.4191 70.9721 28.7766 70.7977 29.1429C70.7977 29.1516 70.7889 29.1603 70.7889 29.1603C69.1583 32.7617 66.8562 37.3222 64.1094 37.3222C63.6385 37.3222 63.3159 37.1914 63.1328 36.9211C62.9322 36.5897 62.8189 36.0578 62.8189 35.4125V35.3079C62.8189 34.5929 63.0805 33.5465 63.3333 32.6221C63.5862 31.5147 63.9873 30.198 64.5193 28.6894C64.807 27.8087 65.182 26.7797 65.5831 25.681C65.8447 24.9573 66.1237 24.1986 66.3941 23.44C67.5451 20.3095 68.4694 17.8417 68.9926 16.4814C69.1234 16.1588 69.1147 15.7751 68.9577 15.435C68.8095 15.1037 68.5392 14.8508 68.2078 14.7287C68.0596 14.6764 67.9026 14.6502 67.7544 14.6502C67.1876 14.6502 66.6731 14.999 66.4638 15.5048L66.2807 15.9844C66.1237 16.3855 65.9493 16.8215 65.7837 17.3011C65.6529 17.1093 65.5221 16.9174 65.3651 16.7343C64.3449 15.6007 63.0107 14.9293 61.5893 14.8159H61.101C58.3891 14.8682 55.8429 16.8128 53.5408 20.606C52.2851 22.7337 51.2474 25.2712 50.5237 27.6343C50.4713 27.7128 50.4365 27.8 50.4016 27.8785C46.8351 36.5636 42.3356 40.4353 35.8479 40.4353C35.7171 40.4353 35.5776 40.4178 35.4555 40.4004C35.3509 40.3917 35.2462 40.3829 35.1677 40.3829C32.8831 40.2783 30.8949 39.4848 29.5957 38.1245C28.2092 36.799 27.4854 34.8806 27.4854 32.596C27.4854 32.4129 27.4854 32.221 27.5203 32.1077V32.0728L27.5377 32.0379C27.6424 28.9946 29.055 25.9513 31.4007 23.7016C32.761 22.4023 34.4353 21.3646 36.3711 20.6409C36.4234 20.6757 36.467 20.7019 36.5193 20.7455C36.7373 20.8937 36.9379 21.0333 37.1733 21.1553C38.0715 21.6611 38.9784 22.0186 39.7893 22.1669C40.4172 22.3238 40.9665 22.4023 41.4549 22.4023C41.7426 22.4023 42.0042 22.3761 42.2397 22.3151C43.6785 22.0797 44.5679 21.2687 44.7772 19.9694C44.8382 19.7427 44.8382 19.4549 44.7772 19.2021C44.7336 18.7922 44.6028 18.208 44.0273 17.7545C43.6872 17.3709 43.1465 17.1267 42.3705 17.0046C42.0827 16.9523 41.7339 16.9261 41.3502 16.9261C40.9665 16.9261 40.5654 16.9523 40.112 17.0046C39.0045 17.1093 37.9145 17.3447 36.8943 17.5976C35.8217 16.6209 34.6358 15.0252 34.8015 12.8801C34.8451 12.4702 34.9236 12.0517 34.9933 11.6941C36.4583 12.1214 37.9407 12.3481 39.2923 12.3481L39.6934 12.4005H39.7109H39.7283C42.6582 12.4005 45.4225 11.6593 47.5153 10.3251C49.6168 9.06942 50.9073 7.2731 50.9684 5.53782V5.42446C50.9684 4.02054 50.3318 2.86078 49.1285 2.0847C48.1867 1.3871 46.7305 1.00342 45.0301 1.00342C41.7252 1.00342 38.5947 2.18934 36.2229 4.34318C35.0369 5.42446 34.0777 6.68886 33.3801 8.11022C33.3017 8.0579 33.2232 8.02302 33.1447 7.97942C32.9005 7.83118 32.6651 7.70038 32.4471 7.55214C30.4677 6.26158 28.8719 4.37806 27.6947 1.93646C27.4767 1.46558 26.9971 1.15166 26.4739 1.15166C26.2733 1.15166 26.0553 1.20398 25.8809 1.29118C25.1921 1.6051 24.913 2.38118 25.2357 3.09622C26.5611 5.94766 28.4882 8.21486 30.9473 9.81934C31.3833 10.1245 31.8803 10.4123 32.4384 10.6739C32.264 11.3279 32.1681 11.947 32.0721 12.6185C31.8367 15.3565 32.979 17.3709 34.0777 18.644C32.3425 19.4375 30.8077 20.4665 29.5085 21.7221C26.7181 24.4166 24.9828 28.1139 24.7473 31.8722V32.6221C24.7473 35.5608 25.7414 38.1419 27.6249 40.0865C29.4561 41.9177 32.0111 42.9641 35.0108 43.1297C35.2898 43.1821 35.5601 43.1821 35.8217 43.1821C41.4636 43.1821 45.8933 40.7405 49.4162 35.5957C49.5557 36.5985 49.8522 37.4269 50.3057 38.0809C51.0469 39.2668 52.1979 39.9121 53.7413 39.9557H53.8634C56.0957 39.9557 58.206 38.6825 60.1157 36.1537C60.2029 37.017 60.447 37.7844 60.8569 38.4297C61.6242 39.5197 62.6968 40.069 64.0397 40.069H64.092C66.9434 40.069 69.0885 37.8541 70.7889 35.1161C71.1377 35.9706 71.6261 36.7729 72.2626 37.4879C73.745 39.0226 75.6896 39.9208 77.7562 40.0167C77.826 40.0167 77.887 40.0254 77.9481 40.0341C78.044 40.0516 78.1486 40.069 78.2881 40.069H78.3405C80.8169 40.008 83.1452 39.1796 84.9066 37.7146C86.9297 36.0404 88.072 33.5116 88.1243 30.5991V30.4945C88.072 27.3378 86.546 24.7218 85.0723 22.2017L85.0636 22.1843ZM83.9997 14.9293V14.9554C83.9474 15.2868 83.7992 15.6356 83.6509 15.9757C83.4329 16.464 83.1452 16.9261 82.8661 17.3185C82.7528 16.7517 82.7353 16.1762 82.8138 15.592C82.8487 15.3565 82.9272 15.1037 83.0318 14.8246L83.0493 14.8072L83.0841 14.7723L83.1016 14.72C83.1801 14.5194 83.3021 14.345 83.4591 14.1881C83.5899 14.0573 83.7207 13.9701 83.8602 13.8741H83.8951C83.8951 13.8741 83.9736 13.8305 83.9997 13.8218L84.0346 13.8393H84.0869C84.0869 13.8916 84.0869 13.9701 84.0869 14.0398V14.0834C84.1305 14.3189 84.1044 14.5805 83.9997 14.8944V14.9118V14.9293ZM40.3823 19.4637C41.0625 19.359 41.5769 19.359 41.9432 19.4113C42.1437 19.4637 42.2571 19.516 42.3007 19.5683C42.3007 19.7776 42.1001 19.8822 41.8385 19.9345C41.42 19.9869 40.9055 19.9345 40.33 19.7776C40.0684 19.7253 39.8068 19.6729 39.5452 19.5683C39.8068 19.516 40.112 19.4637 40.3736 19.4637H40.3823ZM45.0126 3.71534C46.1201 3.71534 47.0269 3.93334 47.6199 4.34318C48.0297 4.64838 48.2303 5.0059 48.2303 5.41574V5.46806C48.1867 6.23542 47.4019 7.15974 46.0677 7.99686C44.4458 9.03454 42.1176 9.61878 39.7109 9.61878H39.3446C38.211 9.61878 37.0513 9.44438 35.8828 9.09558C36.406 8.1015 37.1385 7.17718 38.0715 6.34878C39.9812 4.64838 42.4489 3.70662 45.0126 3.70662V3.71534ZM53.8809 37.2263H53.8024C53.2356 37.1827 52.8345 36.9734 52.5641 36.5636C52.2066 35.9968 52.0322 35.0899 52.0322 33.8081C52.0845 31.1572 53.5582 25.899 55.8429 22.0361C57.5781 19.141 59.3919 17.5889 61.0749 17.5365C61.1621 17.5365 61.2144 17.5365 61.258 17.5627L61.3103 17.5801H61.3713C62.0777 17.6325 62.7404 17.9638 63.2636 18.5393C63.7781 19.0974 64.0745 20.013 64.1269 21.1815C64.1269 21.26 64.1269 21.3297 64.092 21.4431C63.9176 21.8355 63.7345 22.2977 63.5513 22.786C63.3508 23.3005 63.1415 23.8324 62.9061 24.3817C60.9005 29.5004 57.8746 37.2089 53.8809 37.2089V37.2263Z" fill="#BF2222"/>
<path d="M113.43 27.8087C113.282 27.4773 113.02 27.2245 112.689 27.1024C112.523 27.0239 112.34 26.9803 112.148 26.9803C111.607 26.9803 111.11 27.3204 110.927 27.8349C109.453 31.3316 107.753 34.0348 105.739 36.1014C104.003 37.9413 102.076 39.2755 99.8527 40.1998C99.687 40.2783 99.5214 40.3481 99.3557 40.4004C100.018 38.4558 100.699 36.5287 101.344 34.6626C102.076 32.6221 102.73 30.7822 103.332 29.0644L104.099 26.9193C104.718 25.2538 106.829 19.577 107.945 16.7954V16.7605L107.98 16.743L107.997 16.6907C108.119 16.3419 108.102 15.9757 107.936 15.6443C107.779 15.3217 107.5 15.0775 107.151 14.9467C107.003 14.8769 106.82 14.8421 106.637 14.8421C106.096 14.8421 105.599 15.1996 105.407 15.7315V15.7577L105.372 15.7751L105.355 15.8274C105.05 16.6384 104.649 17.7022 104.204 18.8882C103.315 21.2338 102.312 23.8934 101.553 26.0211C101.448 26.3001 101.335 26.6054 101.222 26.9018C101.1 27.207 100.986 27.5035 100.882 27.7913V27.8174L100.847 27.8349L100.829 27.8959L100.777 28.0529L100.69 28.2447C99.0766 31.8635 96.6438 37.3309 93.6528 37.3309H93.6005C93.1645 37.3309 92.8593 37.2001 92.6762 36.9298C92.3971 36.5549 92.3622 35.9532 92.3622 35.4213V35.1509H92.3274C92.3797 34.619 92.5105 33.7819 92.8244 32.6309C93.1034 31.6106 93.4958 30.3201 94.0103 28.6894C94.1673 28.236 94.4289 27.5122 94.7602 26.5966C94.987 25.9862 95.2398 25.2973 95.5102 24.5387C96.0246 23.1173 96.6874 21.2862 97.4111 19.2806L98.3703 16.6384C98.4924 16.2983 98.4837 15.9321 98.3442 15.6007C98.1959 15.2693 97.9256 15.0165 97.5855 14.8944C97.4198 14.8334 97.2629 14.8072 97.0972 14.8072C96.5304 14.8072 96.0334 15.156 95.8415 15.6792C94.6033 19.0102 93.679 21.5129 92.9378 23.5795C92.4233 24.966 92.0222 26.1345 91.7257 26.9803C91.6036 27.3378 91.5077 27.6256 91.4292 27.8436L91.2374 28.4453C90.8275 29.701 90.4438 30.8956 90.1735 31.9769C89.8596 33.1192 89.659 34.2179 89.598 35.2469V35.4213C89.598 36.5985 89.8596 37.61 90.3654 38.4209C91.1327 39.511 92.2053 40.0603 93.5482 40.0603H93.6528C94.8126 40.0603 95.9287 39.6766 96.9838 38.9267C96.8792 39.2232 96.7833 39.511 96.6786 39.7987C96.4868 40.3394 96.295 40.88 96.0944 41.4381C95.1701 41.6735 94.2545 41.8392 93.365 42.0049C92.9726 42.0833 92.5802 42.1531 92.1966 42.2316H92.1791C87.2872 43.1297 83.433 43.8361 82.9446 48.5449V49.3035C83.0057 50.6377 83.4853 51.8759 84.3137 52.809C84.9938 53.5327 86.2234 54.4221 88.229 54.614C88.6039 54.6663 88.9702 54.6663 89.3974 54.6663C91.7518 54.5617 93.5918 53.4717 95.0306 51.3265C96.1554 49.6872 96.8792 47.6031 97.5942 45.5801L97.6553 45.3882L98.2308 43.6965C99.2772 43.4001 100.123 43.0949 100.89 42.7286C103.541 41.6386 105.782 40.0778 107.736 37.9937C109.907 35.7178 111.773 32.7268 113.447 28.8725C113.578 28.5412 113.569 28.1575 113.421 27.8174L113.43 27.8087ZM95.0742 44.5337L95.0044 44.7255C94.3678 46.5567 93.7051 48.4402 92.7721 49.818C91.8478 51.1958 90.7316 51.8934 89.3451 51.937C89.0574 51.937 88.7522 51.9369 88.5254 51.8846H88.4993C87.5314 51.7974 86.8425 51.4835 86.3367 50.9342C85.953 50.5069 85.7263 49.9314 85.674 49.225V48.7978C85.9618 46.2254 88.5254 45.6585 92.6762 44.9435C93.2081 44.8214 93.7051 44.7255 94.2458 44.6296C94.5248 44.5773 94.8126 44.525 95.109 44.4639L95.0829 44.5511L95.0742 44.5337Z" fill="#BF2222"/>
<path d="M162.384 4.18622C162.305 3.07006 161.704 2.20678 160.579 1.6487C159.785 1.22142 158.678 0.994703 157.396 0.994703H157.239C155.155 1.04702 152.931 1.6923 150.969 2.79974C149.949 3.46246 149.19 4.07286 148.519 4.76174C146.365 4.27342 144.377 3.71534 142.45 3.1747L142.136 3.0875C138.116 1.87542 134.733 0.942383 130.94 0.942383C128.707 0.942383 126.431 1.91902 124.67 3.61942C122.839 5.38958 121.775 7.5783 121.679 9.77574C121.574 11.3715 121.827 12.8103 122.429 14.0137C123.039 15.3391 124.025 16.4029 125.35 17.1441C126.553 17.8243 128.001 18.2167 129.518 18.2777C129.71 18.2777 129.902 18.2865 130.094 18.2865C131.986 18.2865 134.061 17.8156 135.927 16.9523C136.259 16.7953 136.512 16.525 136.642 16.1762C136.773 15.8274 136.738 15.4525 136.581 15.1298C136.363 14.6502 135.901 14.345 135.378 14.345C135.169 14.345 134.959 14.3886 134.768 14.4758C133.224 15.1734 131.585 15.5571 130.146 15.5571C129.98 15.5571 129.815 15.5571 129.649 15.5397C128.498 15.4873 127.504 15.2257 126.702 14.7461C125.873 14.3276 125.272 13.691 124.888 12.8365C124.504 12.0517 124.347 11.1186 124.391 9.8891C124.487 8.35438 125.298 6.7499 126.536 5.60758C127.783 4.36062 129.379 3.6543 130.931 3.6543C134.401 3.6543 137.663 4.60478 141.124 5.59886L141.36 5.6599C141.717 5.76454 142.084 5.86918 142.45 5.97382C143.819 6.36622 145.232 6.77606 146.723 7.13358C146.688 7.19462 146.662 7.25566 146.644 7.30798C144.726 10.8134 143.304 15.2693 142.162 18.8533L141.962 19.4985C141.674 20.4054 141.386 21.2861 141.142 22.0099H137.593C136.826 22.0099 136.233 22.629 136.233 23.4225C136.233 24.2161 136.843 24.7829 137.593 24.7829H140.226C140.165 24.966 140.104 25.1578 140.034 25.3497C139.982 25.5153 139.93 25.6723 139.878 25.8293C137.488 33.1977 135.238 40.1475 128.027 40.1475H127.556C125.664 40.008 124.007 39.2406 122.926 38.0024C121.879 36.7641 121.33 35.1335 121.33 33.2936V32.9273C121.461 30.7822 122.368 28.8813 123.998 27.3029C125.725 25.7159 128.071 24.7218 130.102 24.7218C130.87 24.7218 131.463 24.1027 131.463 23.3092C131.463 22.5593 130.852 21.9489 130.102 21.9489C127.277 22.0099 124.295 23.2743 122.124 25.3497C120.624 26.7623 118.793 29.2126 118.609 32.8053V33.2325C118.557 35.7003 119.359 38.0285 120.85 39.7987C122.533 41.6473 124.809 42.7025 127.434 42.8594H128.132C137.262 42.8594 139.939 34.6277 142.52 26.6664V26.6315C142.712 26.0298 142.903 25.4194 143.13 24.7741H148.292C149.042 24.7741 149.653 24.1637 149.653 23.4138C149.653 22.6203 149.051 22.0012 148.292 22.0012H144.037C144.211 21.4693 144.386 20.9025 144.551 20.3182L144.735 19.7514C145.877 16.2373 147.29 11.8598 149.051 8.5811C149.217 8.28462 149.391 7.97942 149.565 7.70038C152.12 8.11022 154.361 8.30206 156.611 8.30206C158.111 8.30206 159.445 7.98814 160.492 7.37774C161.773 6.58422 162.445 5.55526 162.445 4.38678C162.445 4.33446 162.445 4.23854 162.384 4.1339V4.18622ZM159.672 4.4391C159.672 4.63966 159.454 4.88382 159.088 5.08438C158.477 5.4419 157.631 5.62502 156.62 5.62502C155.207 5.62502 153.795 5.53782 152.112 5.3547C152.199 5.30238 152.286 5.25006 152.373 5.20646C153.873 4.31702 155.643 3.7851 157.256 3.72406H157.405C158.216 3.72406 158.905 3.86358 159.349 4.10774H159.367L159.375 4.12518C159.567 4.20366 159.681 4.33446 159.681 4.3955V4.44782L159.672 4.4391Z" fill="#BF2222"/>
<path d="M217.172 27.1634C217.006 27.0762 216.823 27.0326 216.622 27.0326C216.099 27.0326 215.593 27.3465 215.367 27.8C214.329 30.0759 213.335 31.9507 212.419 33.3895C211.512 34.7585 210.579 35.7875 209.681 36.4328C209.289 36.6944 208.861 36.9037 208.356 37.0693C207.815 37.235 207.335 37.3135 206.934 37.3135H206.882C206.498 37.3135 206.211 37.1914 206.001 36.9385C205.696 36.6333 205.548 36.1014 205.548 35.3951V35.2905C205.548 34.7324 205.722 33.8255 206.062 32.657C206.333 31.6193 206.699 30.3898 207.248 28.6633C208.818 24.0591 210.283 19.8909 211.713 15.9408L212.785 12.7231H212.794L212.838 12.6708L212.855 12.6097L213.169 11.6767C213.474 10.7437 213.945 9.34846 214.416 8.04046C214.538 7.70038 214.529 7.33414 214.39 7.00278C214.242 6.67142 213.971 6.41854 213.631 6.29646C213.474 6.23542 213.309 6.20926 213.143 6.20926C212.576 6.20926 212.079 6.54934 211.887 7.07254C211.661 7.74398 211.443 8.32822 211.259 8.85142C210.972 9.66238 210.745 10.2902 210.588 10.8309L210.283 11.6941L210.265 11.7377V11.7901L209.14 15.0165C208.983 15.4612 208.809 15.9059 208.643 16.3593C208.539 16.6384 208.443 16.9174 208.338 17.1965C208.303 17.1354 208.26 17.0831 208.216 17.0308C208.138 16.9261 208.068 16.8302 207.998 16.7256V16.7081L207.981 16.6907C206.969 15.5658 205.626 14.8944 204.214 14.781H203.725C201.013 14.8333 198.467 16.7779 196.165 20.5711C194.909 22.6988 193.88 25.2363 193.148 27.5994C193.096 27.6779 193.061 27.7651 193.026 27.8436C192.982 27.9395 192.939 28.0441 192.904 28.1488C192.817 28.3755 192.729 28.5761 192.633 28.733C192.572 28.8638 192.511 28.9685 192.468 29.0644C192.381 29.2475 192.302 29.4132 192.206 29.5614C191.526 30.9305 190.802 31.9943 190.07 32.7355C189.259 33.5465 188.308 33.9563 187.245 33.9563C186.939 33.9563 186.643 33.904 186.416 33.8604C185.919 33.7383 185.457 33.468 185.126 33.1105C187.471 29.0993 189.076 24.2509 189.119 20.9809C189.172 19.2021 188.709 17.7284 187.759 16.5948C186.782 15.4699 185.37 14.8421 183.661 14.7897H183.6C180.251 14.7897 177.67 17.8853 176.092 20.4839C175.281 21.8355 174.008 24.4602 173.031 27.3553C172.883 27.4861 172.761 27.6605 172.691 27.8523C172.647 27.9482 172.604 28.0529 172.56 28.1575C172.473 28.3842 172.394 28.5761 172.298 28.7417C172.237 28.8725 172.176 28.9772 172.133 29.0731C172.046 29.2562 171.967 29.4219 171.88 29.5701C171.191 30.9392 170.476 32.003 169.735 32.7442C168.924 33.5552 167.973 33.965 166.91 33.965C166.604 33.965 166.308 33.9127 166.081 33.8691C165.584 33.747 165.122 33.4767 164.791 33.1192C167.136 29.108 168.741 24.2597 168.784 20.9897C168.837 19.2108 168.374 17.7371 167.424 16.6035C166.447 15.4786 165.035 14.8508 163.334 14.7985H163.273C159.925 14.7985 157.344 17.8941 155.765 20.4926C153.899 23.6057 149.548 33.529 152.059 37.9588C152.835 39.3278 154.196 40.0341 156.105 40.0341C158.364 40.0341 161.006 38.3076 163.221 35.4213C163.857 35.9183 164.581 36.2845 165.384 36.5374C165.898 36.6508 166.386 36.7031 166.918 36.7031C168.697 36.7031 170.241 36.0665 171.636 34.7411C171.662 35.9619 171.889 37.0693 172.386 37.9588C173.162 39.3278 174.522 40.0341 176.432 40.0341C178.69 40.0341 181.332 38.3076 183.547 35.4213C184.184 35.9183 184.908 36.2845 185.71 36.5374C186.224 36.6508 186.713 36.7031 187.245 36.7031C189.032 36.7031 190.576 36.0665 191.979 34.7324C192.049 36.1014 192.381 37.2176 192.956 38.046C193.697 39.2319 194.848 39.8772 196.383 39.9208H196.505C198.79 39.9208 200.874 38.6302 202.862 35.9881C202.984 37.3833 203.499 38.2727 203.943 38.7872C204.711 39.6069 205.705 40.0254 206.899 40.0254H206.952C207.719 40.0254 208.469 39.8946 209.175 39.6417C209.908 39.4325 210.614 39.1098 211.259 38.6738C212.506 37.7582 213.631 36.5113 214.713 34.8545C215.689 33.3808 216.709 31.4973 217.895 28.951C218.209 28.2534 217.895 27.4599 217.189 27.1373L217.172 27.1634ZM161.599 28.0703C161.355 28.9074 161.224 29.7707 161.224 30.634C161.224 31.6193 161.346 32.3693 161.608 33.0407C159.663 35.7613 157.658 37.3222 156.088 37.3222C155.329 37.3222 154.797 37.0345 154.466 36.4415C153.768 35.1945 153.986 32.6047 155.059 29.1341C155.966 26.2042 157.291 23.2917 158.137 21.9401C159.785 19.1061 161.608 17.5453 163.265 17.5453C163.901 17.5801 164.791 17.7633 165.349 18.4347C165.863 19.0015 166.107 19.8735 166.064 20.9548C166.02 22.9081 165.349 25.5328 164.259 28.1139C164.154 27.6343 163.788 27.2332 163.282 27.0937C163.151 27.0588 163.02 27.0413 162.898 27.0413C162.262 27.0413 161.756 27.4425 161.599 28.0616V28.0703ZM183.608 27.0937C183.477 27.0588 183.347 27.0413 183.225 27.0413C182.588 27.0413 182.082 27.4425 181.925 28.0616C181.681 28.8987 181.55 29.762 181.55 30.6253C181.55 31.6106 181.672 32.3605 181.925 33.032C179.989 35.7526 177.975 37.3135 176.414 37.3135C175.656 37.3135 175.124 37.0257 174.792 36.4328C174.095 35.1858 174.313 32.596 175.385 29.1254C176.292 26.1955 177.618 23.283 178.463 21.9314C180.112 19.0974 181.934 17.5365 183.591 17.5365C184.227 17.5714 185.117 17.7545 185.666 18.426C186.189 18.9928 186.434 19.8648 186.39 20.9461C186.346 22.8993 185.675 25.5241 184.585 28.1052C184.48 27.6256 184.114 27.2245 183.608 27.0849V27.0937ZM196.505 37.2176H196.427C195.86 37.174 195.459 36.9647 195.188 36.5549C194.84 35.9881 194.657 35.0812 194.657 33.7993C194.709 31.1485 196.183 25.8903 198.467 22.0273C200.202 19.1323 202.016 17.5801 203.699 17.5278C203.786 17.5278 203.839 17.5278 203.882 17.554L203.935 17.5714H203.987C204.702 17.6237 205.356 17.9551 205.888 18.5306C206.402 19.0887 206.699 20.0043 206.751 21.1728C206.751 21.2513 206.751 21.321 206.716 21.4344C206.542 21.8268 206.367 22.2889 206.176 22.7773C205.975 23.2917 205.775 23.8237 205.539 24.373C203.534 29.4917 200.508 37.2001 196.514 37.2001L196.505 37.2176Z" fill="#BF2222"/>
<path d="M16.7773 31.6368H3.97632C3.49672 31.6368 3.11304 31.1659 3.11304 30.5904C3.11304 30.0149 3.49672 29.544 3.97632 29.544H16.7686C17.2482 29.544 17.6318 30.0149 17.6318 30.5904C17.6318 31.1659 17.2482 31.6368 16.7686 31.6368H16.7773Z" fill="#BF2222"/>
<path d="M18.6172 24.2597H5.81625C5.33665 24.2597 4.95297 23.7888 4.95297 23.2133C4.95297 22.6378 5.33665 22.1669 5.81625 22.1669H18.6085C19.0881 22.1669 19.4718 22.6378 19.4718 23.2133C19.4718 23.7888 19.0881 24.2597 18.6085 24.2597H18.6172Z" fill="#BF2222"/>
<path d="M13.6642 39.0226H0.86328C0.38368 39.0226 0 38.5517 0 37.9762C0 37.4007 0.38368 36.9298 0.86328 36.9298H13.6642C14.1438 36.9298 14.5275 37.4007 14.5275 37.9762C14.5275 38.5517 14.1438 39.0226 13.6642 39.0226Z" fill="#BF2222"/>
</g>
<defs>
<clipPath id="clip0_176_317">
<rect width="218" height="53.7152" fill="white" transform="translate(0 0.942383)"/>
</clipPath>
</defs>
</svg>
