<svg width="250" height="62" viewBox="0 0 250 62" fill="none" xmlns="http://www.w3.org/2000/svg">
<g clip-path="url(#clip0_341_486)">
<path d="M84.06 33.58C84.21 33.25 84.36 32.91 84.51 32.59C84.33 32.9 84.18 33.23 84.06 33.58ZM81.81 30.88H81.8V30.9L81.74 31.08C81.87 30.84 82.01 30.6 82.16 30.38C82.02 30.52 81.9 30.68 81.81 30.88Z" fill="#FCEE21"/>
<path d="M81.17 32.34C81.36 31.91 81.55 31.5 81.73 31.11C81.51 31.51 81.33 31.92 81.17 32.34Z" fill="#FCEE21"/>
<path d="M97.55 24.36C97.3 23.86 97.03 23.37 96.75 22.89C96.61 22.65 96.48 22.41 96.34 22.17C97.43 20.92 98.2 19.77 98.75 18.56C98.97 18.07 99.24 17.42 99.37 16.76C99.49 16.19 99.61 15.59 99.61 15.03C99.54 13.99 99.26 13.24 98.75 12.73C98.22 12.08 97.44 11.69 96.47 11.62H96.45C95.93 11.62 95.4 11.75 94.88 12.01C94.4 12.21 93.9 12.55 93.55 12.91C93.07 13.39 92.71 13.9 92.48 14.43C92.48 14.43 92.42 14.52 92.41 14.59C92.13 15.23 91.98 15.76 91.93 16.31C91.66 17.98 91.89 19.69 92.65 21.51C92.02 22.15 91.38 22.84 90.75 23.59C90.48 23.92 90.37 24.32 90.41 24.73C90.45 25.14 90.64 25.51 90.97 25.77C91.25 26.01 91.61 26.15 91.99 26.15C92.44 26.15 92.87 25.95 93.18 25.61C93.46 25.24 93.76 24.88 94.08 24.54C94.18 24.71 94.28 24.87 94.38 25.05C94.54 25.33 94.71 25.62 94.89 25.92C96.36 28.46 97.88 31.08 97.95 33.88V33.93C97.89 36.37 97.01 38.4 95.38 39.78C93.86 40.97 91.89 41.67 89.85 41.73H89.8C89.63 41.73 89.55 41.73 89.42 41.69H89.38L89.34 41.68C87.7 41.57 86.19 40.87 85.2 39.75C84.22 38.72 83.67 37.3 83.67 35.84V35.48C83.72 34.83 83.86 34.19 84.08 33.58C84.2 33.23 84.35 32.91 84.53 32.59C84.53 32.59 84.53 32.57 84.54 32.57C84.79 32.12 85.08 31.71 85.43 31.34C86.41 30.3 87.62 29.77 89.02 29.77C89.71 29.77 90.41 30.1 90.94 30.68C91.5 31.3 91.82 32.08 91.87 33C91.87 33.87 92.54 34.54 93.43 34.54C94.32 34.54 94.99 33.87 94.99 32.98C94.93 31.31 94.29 29.71 93.24 28.6C92.06 27.37 90.5 26.66 88.96 26.66C86.61 26.72 84.6 27.6 83.13 29.2C82.78 29.56 82.46 29.96 82.17 30.39C82.02 30.62 81.88 30.85 81.75 31.09C81.75 31.09 81.75 31.1 81.75 31.11C81.57 31.51 81.39 31.92 81.19 32.34C81.19 32.35 81.18 32.36 81.18 32.36C79.31 36.49 76.67 41.72 73.52 41.72C72.98 41.72 72.61 41.57 72.4 41.26C72.17 40.88 72.04 40.27 72.04 39.53V39.41C72.04 38.59 72.34 37.39 72.63 36.33C72.92 35.06 73.38 33.55 73.99 31.82C74.32 30.81 74.75 29.63 75.21 28.37C75.51 27.54 75.83 26.67 76.14 25.8C77.46 22.21 78.52 19.38 79.12 17.82C79.27 17.45 79.26 17.01 79.08 16.62C78.91 16.24 78.6 15.95 78.22 15.81C78.05 15.75 77.87 15.72 77.7 15.72C77.05 15.72 76.46 16.12 76.22 16.7L76.01 17.25C75.83 17.71 75.63 18.21 75.44 18.76C75.29 18.54 75.14 18.32 74.96 18.11C73.79 16.81 72.26 16.04 70.63 15.91H70.07C66.96 15.97 64.04 18.2 61.4 22.55C59.96 24.99 58.77 27.9 57.94 30.61C57.88 30.7 57.84 30.8 57.8 30.89C53.71 40.85 48.55 45.29 41.11 45.29C40.96 45.29 40.8 45.27 40.66 45.25C40.54 45.24 40.42 45.23 40.33 45.23C37.71 45.11 35.43 44.2 33.94 42.64C32.35 41.12 31.52 38.92 31.52 36.3C31.52 36.09 31.52 35.87 31.56 35.74V35.7L31.58 35.66C31.7 32.17 33.32 28.68 36.01 26.1C37.57 24.61 39.49 23.42 41.71 22.59C41.77 22.63 41.82 22.66 41.88 22.71C42.13 22.88 42.36 23.04 42.63 23.18C43.66 23.76 44.7 24.17 45.63 24.34C46.35 24.52 46.98 24.61 47.54 24.61C47.87 24.61 48.17 24.58 48.44 24.51C50.09 24.24 51.11 23.31 51.35 21.82C51.42 21.56 51.42 21.23 51.35 20.94C51.3 20.47 51.15 19.8 50.49 19.28C50.1 18.84 49.48 18.56 48.59 18.42C48.26 18.36 47.86 18.33 47.42 18.33C46.98 18.33 46.52 18.36 46 18.42C44.73 18.54 43.48 18.81 42.31 19.1C41.08 17.98 39.72 16.15 39.91 13.69C39.96 13.22 40.05 12.74 40.13 12.33C41.81 12.82 43.51 13.08 45.06 13.08L45.52 13.14H45.54H45.56C48.92 13.14 52.09 12.29 54.49 10.76C56.9 9.32001 58.38 7.26001 58.45 5.27001V5.14001C58.45 3.53001 57.72 2.20001 56.34 1.31001C55.26 0.510007 53.59 0.0700073 51.64 0.0700073C47.85 0.0700073 44.26 1.43001 41.54 3.90001C40.18 5.14001 39.08 6.59001 38.28 8.22001C38.19 8.16001 38.1 8.12001 38.01 8.07001C37.73 7.90001 37.46 7.75001 37.21 7.58001C34.94 6.10001 33.11 3.94001 31.76 1.14001C31.51 0.600007 30.96 0.240007 30.36 0.240007C30.13 0.240007 29.88 0.300007 29.68 0.400007C28.89 0.760007 28.57 1.65001 28.94 2.47001C30.46 5.74001 32.67 8.34001 35.49 10.18C35.99 10.53 36.56 10.86 37.2 11.16C37 11.91 36.89 12.62 36.78 13.39C36.51 16.53 37.82 18.84 39.08 20.3C37.09 21.21 35.33 22.39 33.84 23.83C30.64 26.92 28.65 31.16 28.38 35.47V36.33C28.38 39.7 29.52 42.66 31.68 44.89C33.78 46.99 36.71 48.19 40.15 48.38C40.47 48.44 40.78 48.44 41.08 48.44C47.55 48.44 52.63 45.64 56.67 39.74C56.83 40.89 57.17 41.84 57.69 42.59C58.54 43.95 59.86 44.69 61.63 44.74H61.77C64.33 44.74 66.75 43.28 68.94 40.38C69.04 41.37 69.32 42.25 69.79 42.99C70.67 44.24 71.9 44.87 73.44 44.87H73.5C76.77 44.87 79.23 42.33 81.18 39.19C81.58 40.17 82.14 41.09 82.87 41.91C84.57 43.67 86.8 44.7 89.17 44.81C89.25 44.81 89.32 44.82 89.39 44.83C89.5 44.85 89.62 44.87 89.78 44.87H89.84C92.68 44.8 95.35 43.85 97.37 42.17C99.69 40.25 101 37.35 101.06 34.01V33.89C101 30.27 99.25 27.27 97.56 24.38L97.55 24.36ZM96.33 16.04V16.07C96.27 16.45 96.1 16.85 95.93 17.24C95.68 17.8 95.35 18.33 95.03 18.78C94.9 18.13 94.88 17.47 94.97 16.8C95.01 16.53 95.1 16.24 95.22 15.92L95.24 15.9L95.28 15.86L95.3 15.8C95.39 15.57 95.53 15.37 95.71 15.19C95.86 15.04 96.01 14.94 96.17 14.83H96.21C96.21 14.83 96.3 14.78 96.33 14.77L96.37 14.79H96.43C96.43 14.85 96.43 14.94 96.43 15.02V15.07C96.48 15.34 96.45 15.64 96.33 16V16.02V16.04ZM46.31 21.24C47.09 21.12 47.68 21.12 48.1 21.18C48.33 21.24 48.46 21.3 48.51 21.36C48.51 21.6 48.28 21.72 47.98 21.78C47.5 21.84 46.91 21.78 46.25 21.6C45.95 21.54 45.65 21.48 45.35 21.36C45.65 21.3 46 21.24 46.3 21.24H46.31ZM51.62 3.18001C52.89 3.18001 53.93 3.43001 54.61 3.90001C55.08 4.25001 55.31 4.66001 55.31 5.13001V5.19001C55.26 6.07001 54.36 7.13001 52.83 8.09001C50.97 9.28001 48.3 9.95001 45.54 9.95001H45.12C43.82 9.95001 42.49 9.75001 41.15 9.35001C41.75 8.21001 42.59 7.15001 43.66 6.20001C45.85 4.25001 48.68 3.17001 51.62 3.17001V3.18001ZM61.79 41.61H61.7C61.05 41.56 60.59 41.32 60.28 40.85C59.87 40.2 59.67 39.16 59.67 37.69C59.73 34.65 61.42 28.62 64.04 24.19C66.03 20.87 68.11 19.09 70.04 19.03C70.14 19.03 70.2 19.03 70.25 19.06L70.31 19.08H70.38C71.19 19.14 71.95 19.52 72.55 20.18C73.14 20.82 73.48 21.87 73.54 23.21C73.54 23.3 73.54 23.38 73.5 23.51C73.3 23.96 73.09 24.49 72.88 25.05C72.65 25.64 72.41 26.25 72.14 26.88C69.84 32.75 66.37 41.59 61.79 41.59V41.61Z" fill="#FCEE21"/>
<path d="M130.08 30.81C129.91 30.43 129.61 30.14 129.23 30C129.04 29.91 128.83 29.86 128.61 29.86C127.99 29.86 127.42 30.25 127.21 30.84C125.52 34.85 123.57 37.95 121.26 40.32C119.27 42.43 117.06 43.96 114.51 45.02C114.32 45.11 114.13 45.19 113.94 45.25C114.7 43.02 115.48 40.81 116.22 38.67C117.06 36.33 117.81 34.22 118.5 32.25L119.38 29.79C120.09 27.88 122.51 21.37 123.79 18.18V18.14L123.83 18.12L123.85 18.06C123.99 17.66 123.97 17.24 123.78 16.86C123.6 16.49 123.28 16.21 122.88 16.06C122.71 15.98 122.5 15.94 122.29 15.94C121.67 15.94 121.1 16.35 120.88 16.96V16.99L120.84 17.01L120.82 17.07C120.47 18 120.01 19.22 119.5 20.58C118.48 23.27 117.33 26.32 116.46 28.76C116.34 29.08 116.21 29.43 116.08 29.77C115.94 30.12 115.81 30.46 115.69 30.79V30.82L115.65 30.84L115.63 30.91L115.57 31.09L115.47 31.31C113.62 35.46 110.83 41.73 107.4 41.73H107.34C106.84 41.73 106.49 41.58 106.28 41.27C105.96 40.84 105.92 40.15 105.92 39.54V39.23H105.88C105.94 38.62 106.09 37.66 106.45 36.34C106.77 35.17 107.22 33.69 107.81 31.82C107.99 31.3 108.29 30.47 108.67 29.42C108.93 28.72 109.22 27.93 109.53 27.06C110.12 25.43 110.88 23.33 111.71 21.03L112.81 18C112.95 17.61 112.94 17.19 112.78 16.81C112.61 16.43 112.3 16.14 111.91 16C111.72 15.93 111.54 15.9 111.35 15.9C110.7 15.9 110.13 16.3 109.91 16.9C108.49 20.72 107.43 23.59 106.58 25.96C105.99 27.55 105.53 28.89 105.19 29.86C105.05 30.27 104.94 30.6 104.85 30.85L104.63 31.54C104.16 32.98 103.72 34.35 103.41 35.59C103.05 36.9 102.82 38.16 102.75 39.34V39.54C102.75 40.89 103.05 42.05 103.63 42.98C104.51 44.23 105.74 44.86 107.28 44.86H107.4C108.73 44.86 110.01 44.42 111.22 43.56C111.1 43.9 110.99 44.23 110.87 44.56C110.65 45.18 110.43 45.8 110.2 46.44C109.14 46.71 108.09 46.9 107.07 47.09C106.62 47.18 106.17 47.26 105.73 47.35H105.71C100.1 48.38 95.68 49.19 95.12 54.59V55.46C95.19 56.99 95.74 58.41 96.69 59.48C97.47 60.31 98.88 61.33 101.18 61.55C101.61 61.61 102.03 61.61 102.52 61.61C105.22 61.49 107.33 60.24 108.98 57.78C110.27 55.9 111.1 53.51 111.92 51.19L111.99 50.97L112.65 49.03C113.85 48.69 114.82 48.34 115.7 47.92C118.74 46.67 121.31 44.88 123.55 42.49C126.04 39.88 128.18 36.45 130.1 32.03C130.25 31.65 130.24 31.21 130.07 30.82L130.08 30.81ZM109.03 49.99L108.95 50.21C108.22 52.31 107.46 54.47 106.39 56.05C105.33 57.63 104.05 58.43 102.46 58.48C102.13 58.48 101.78 58.48 101.52 58.42H101.49C100.38 58.32 99.59 57.96 99.01 57.33C98.57 56.84 98.31 56.18 98.25 55.37V54.88C98.58 51.93 101.52 51.28 106.28 50.46C106.89 50.32 107.46 50.21 108.08 50.1C108.4 50.04 108.73 49.98 109.07 49.91L109.04 50.01L109.03 49.99Z" fill="#FCEE21"/>
<path d="M186.22 3.72C186.13 2.44 185.44 1.45 184.15 0.81C183.24 0.32 181.97 0.06 180.5 0.06H180.32C177.93 0.12 175.38 0.86 173.13 2.13C171.96 2.89 171.09 3.59 170.32 4.38C167.85 3.82 165.57 3.18 163.36 2.56L163 2.46C158.39 1.07 154.51 0 150.16 0C147.6 0 144.99 1.12 142.97 3.07C140.87 5.1 139.65 7.61 139.54 10.13C139.42 11.96 139.71 13.61 140.4 14.99C141.1 16.51 142.23 17.73 143.75 18.58C145.13 19.36 146.79 19.81 148.53 19.88C148.75 19.88 148.97 19.89 149.19 19.89C151.36 19.89 153.74 19.35 155.88 18.36C156.26 18.18 156.55 17.87 156.7 17.47C156.85 17.07 156.81 16.64 156.63 16.27C156.38 15.72 155.85 15.37 155.25 15.37C155.01 15.37 154.77 15.42 154.55 15.52C152.78 16.32 150.9 16.76 149.25 16.76C149.06 16.76 148.87 16.76 148.68 16.74C147.36 16.68 146.22 16.38 145.3 15.83C144.35 15.35 143.66 14.62 143.22 13.64C142.78 12.74 142.6 11.67 142.65 10.26C142.76 8.5 143.69 6.66 145.11 5.35C146.54 3.92 148.37 3.11 150.15 3.11C154.13 3.11 157.87 4.2 161.84 5.34L162.11 5.41C162.52 5.53 162.94 5.65 163.36 5.77C164.93 6.22 166.55 6.69 168.26 7.1C168.22 7.17 168.19 7.24 168.17 7.3C165.97 11.32 164.34 16.43 163.03 20.54L162.8 21.28C162.47 22.32 162.14 23.33 161.86 24.16H157.79C156.91 24.16 156.23 24.87 156.23 25.78C156.23 26.69 156.93 27.34 157.79 27.34H160.81C160.74 27.55 160.67 27.77 160.59 27.99C160.53 28.18 160.47 28.36 160.41 28.54C157.67 36.99 155.09 44.96 146.82 44.96H146.28C144.11 44.8 142.21 43.92 140.97 42.5C139.77 41.08 139.14 39.21 139.14 37.1V36.68C139.29 34.22 140.33 32.04 142.2 30.23C144.18 28.41 146.87 27.27 149.2 27.27C150.08 27.27 150.76 26.56 150.76 25.65C150.76 24.79 150.06 24.09 149.2 24.09C145.96 24.16 142.54 25.61 140.05 27.99C138.33 29.61 136.23 32.42 136.02 36.54V37.03C135.96 39.86 136.88 42.53 138.59 44.56C140.52 46.68 143.13 47.89 146.14 48.07H146.94C157.41 48.07 160.48 38.63 163.44 29.5V29.46C163.66 28.77 163.88 28.07 164.14 27.33H170.06C170.92 27.33 171.62 26.63 171.62 25.77C171.62 24.86 170.93 24.15 170.06 24.15H165.18C165.38 23.54 165.58 22.89 165.77 22.22L165.98 21.57C167.29 17.54 168.91 12.52 170.93 8.76C171.12 8.42 171.32 8.07 171.52 7.75C174.45 8.22 177.02 8.44 179.6 8.44C181.32 8.44 182.85 8.08 184.05 7.38C185.52 6.47 186.29 5.29 186.29 3.95C186.29 3.89 186.29 3.78 186.22 3.66V3.72ZM183.11 4.01C183.11 4.24 182.86 4.52 182.44 4.75C181.74 5.16 180.77 5.37 179.61 5.37C177.99 5.37 176.37 5.27 174.44 5.06C174.54 5 174.64 4.94 174.74 4.89C176.46 3.87 178.49 3.26 180.34 3.19H180.51C181.44 3.19 182.23 3.35 182.74 3.63H182.76L182.77 3.65C182.99 3.74 183.12 3.89 183.12 3.96V4.02L183.11 4.01Z" fill="#FCEE21"/>
<path d="M249.05 30.07C248.86 29.97 248.65 29.92 248.42 29.92C247.82 29.92 247.24 30.28 246.98 30.8C245.79 33.41 244.65 35.56 243.6 37.21C242.56 38.78 241.49 39.96 240.46 40.7C240.01 41 239.52 41.24 238.94 41.43C238.32 41.62 237.77 41.71 237.31 41.71H237.25C236.81 41.71 236.48 41.57 236.24 41.28C235.89 40.93 235.72 40.32 235.72 39.51V39.39C235.72 38.75 235.92 37.71 236.31 36.37C236.62 35.18 237.04 33.77 237.67 31.79C239.47 26.51 241.15 21.73 242.79 17.2L244.02 13.51H244.03L244.08 13.45L244.1 13.38L244.46 12.31C244.81 11.24 245.35 9.63999 245.89 8.13999C246.03 7.74999 246.02 7.32999 245.86 6.94999C245.69 6.56999 245.38 6.27999 244.99 6.13999C244.81 6.06999 244.62 6.03999 244.43 6.03999C243.78 6.03999 243.21 6.42999 242.99 7.02999C242.73 7.79999 242.48 8.46999 242.27 9.06999C241.94 9.99999 241.68 10.72 241.5 11.34L241.15 12.33L241.13 12.38V12.44L239.84 16.14C239.66 16.65 239.46 17.16 239.27 17.68C239.15 18 239.04 18.32 238.92 18.64C238.88 18.57 238.83 18.51 238.78 18.45C238.69 18.33 238.61 18.22 238.53 18.1V18.08L238.51 18.06C237.35 16.77 235.81 16 234.19 15.87H233.63C230.52 15.93 227.6 18.16 224.96 22.51C223.52 24.95 222.34 27.86 221.5 30.57C221.44 30.66 221.4 30.76 221.36 30.85C221.31 30.96 221.26 31.08 221.22 31.2C221.12 31.46 221.02 31.69 220.91 31.87C220.84 32.02 220.77 32.14 220.72 32.25C220.62 32.46 220.53 32.65 220.42 32.82C219.64 34.39 218.81 35.61 217.97 36.46C217.04 37.39 215.95 37.86 214.73 37.86C214.38 37.86 214.04 37.8 213.78 37.75C213.21 37.61 212.68 37.3 212.3 36.89C214.99 32.29 216.83 26.73 216.88 22.98C216.94 20.94 216.41 19.25 215.32 17.95C214.2 16.66 212.58 15.94 210.62 15.88H210.55C206.71 15.88 203.75 19.43 201.94 22.41C201.01 23.96 199.55 26.97 198.43 30.29C198.26 30.44 198.12 30.64 198.04 30.86C197.99 30.97 197.94 31.09 197.89 31.21C197.79 31.47 197.7 31.69 197.59 31.88C197.52 32.03 197.45 32.15 197.4 32.26C197.3 32.47 197.21 32.66 197.11 32.83C196.32 34.4 195.5 35.62 194.65 36.47C193.72 37.4 192.63 37.87 191.41 37.87C191.06 37.87 190.72 37.81 190.46 37.76C189.89 37.62 189.36 37.31 188.98 36.9C191.67 32.3 193.51 26.74 193.56 22.99C193.62 20.95 193.09 19.26 192 17.96C190.88 16.67 189.26 15.95 187.31 15.89H187.24C183.4 15.89 180.44 19.44 178.63 22.42C176.49 25.99 171.5 37.37 174.38 42.45C175.27 44.02 176.83 44.83 179.02 44.83C181.61 44.83 184.64 42.85 187.18 39.54C187.91 40.11 188.74 40.53 189.66 40.82C190.25 40.95 190.81 41.01 191.42 41.01C193.46 41.01 195.23 40.28 196.83 38.76C196.86 40.16 197.12 41.43 197.69 42.45C198.58 44.02 200.14 44.83 202.33 44.83C204.92 44.83 207.95 42.85 210.49 39.54C211.22 40.11 212.05 40.53 212.97 40.82C213.56 40.95 214.12 41.01 214.73 41.01C216.78 41.01 218.55 40.28 220.16 38.75C220.24 40.32 220.62 41.6 221.28 42.55C222.13 43.91 223.45 44.65 225.21 44.7H225.35C227.97 44.7 230.36 43.22 232.64 40.19C232.78 41.79 233.37 42.81 233.88 43.4C234.76 44.34 235.9 44.82 237.27 44.82H237.33C238.21 44.82 239.07 44.67 239.88 44.38C240.72 44.14 241.53 43.77 242.27 43.27C243.7 42.22 244.99 40.79 246.23 38.89C247.35 37.2 248.52 35.04 249.88 32.12C250.24 31.32 249.88 30.41 249.07 30.04L249.05 30.07ZM185.32 31.11C185.04 32.07 184.89 33.06 184.89 34.05C184.89 35.18 185.03 36.04 185.33 36.81C183.1 39.93 180.8 41.72 179 41.72C178.13 41.72 177.52 41.39 177.14 40.71C176.34 39.28 176.59 36.31 177.82 32.33C178.86 28.97 180.38 25.63 181.35 24.08C183.24 20.83 185.33 19.04 187.23 19.04C187.96 19.08 188.98 19.29 189.62 20.06C190.21 20.71 190.49 21.71 190.44 22.95C190.39 25.19 189.62 28.2 188.37 31.16C188.25 30.61 187.83 30.15 187.25 29.99C187.1 29.95 186.95 29.93 186.81 29.93C186.08 29.93 185.5 30.39 185.32 31.1V31.11ZM210.56 29.99C210.41 29.95 210.26 29.93 210.12 29.93C209.39 29.93 208.81 30.39 208.63 31.1C208.35 32.06 208.2 33.05 208.2 34.04C208.2 35.17 208.34 36.03 208.63 36.8C206.41 39.92 204.1 41.71 202.31 41.71C201.44 41.71 200.83 41.38 200.45 40.7C199.65 39.27 199.9 36.3 201.13 32.32C202.17 28.96 203.69 25.62 204.66 24.07C206.55 20.82 208.64 19.03 210.54 19.03C211.27 19.07 212.29 19.28 212.92 20.05C213.52 20.7 213.8 21.7 213.75 22.94C213.7 25.18 212.93 28.19 211.68 31.15C211.56 30.6 211.14 30.14 210.56 29.98V29.99ZM225.35 41.6H225.26C224.61 41.55 224.15 41.31 223.84 40.84C223.44 40.19 223.23 39.15 223.23 37.68C223.29 34.64 224.98 28.61 227.6 24.18C229.59 20.86 231.67 19.08 233.6 19.02C233.7 19.02 233.76 19.02 233.81 19.05L233.87 19.07H233.93C234.75 19.13 235.5 19.51 236.11 20.17C236.7 20.81 237.04 21.86 237.1 23.2C237.1 23.29 237.1 23.37 237.06 23.5C236.86 23.95 236.66 24.48 236.44 25.04C236.21 25.63 235.98 26.24 235.71 26.87C233.41 32.74 229.94 41.58 225.36 41.58L225.35 41.6Z" fill="#FCEE21"/>
<path d="M19.24 35.2H4.56C4.01 35.2 3.57 34.66 3.57 34C3.57 33.34 4.01 32.8 4.56 32.8H19.23C19.78 32.8 20.22 33.34 20.22 34C20.22 34.66 19.78 35.2 19.23 35.2H19.24Z" fill="#FCEE21"/>
<path d="M21.35 26.74H6.67C6.12 26.74 5.68 26.2 5.68 25.54C5.68 24.88 6.12 24.34 6.67 24.34H21.34C21.89 24.34 22.33 24.88 22.33 25.54C22.33 26.2 21.89 26.74 21.34 26.74H21.35Z" fill="#FCEE21"/>
<path d="M15.67 43.67H0.99C0.44 43.67 0 43.13 0 42.47C0 41.81 0.44 41.27 0.99 41.27H15.67C16.22 41.27 16.66 41.81 16.66 42.47C16.66 43.13 16.22 43.67 15.67 43.67Z" fill="#FCEE21"/>
</g>
<defs>
<clipPath id="clip0_341_486">
<rect width="250" height="61.6" fill="white"/>
</clipPath>
</defs>
</svg>
