<svg width="11" height="15" viewBox="0 0 11 15" fill="none" xmlns="http://www.w3.org/2000/svg">
<g clip-path="url(#clip0_176_531)">
<path d="M5.48326 0.00136406C8.12564 -0.0549352 10.3448 1.72928 10.8839 4.12904C11.1259 5.20482 10.97 6.24354 10.5944 7.26397C10.1154 8.56589 9.43385 9.76929 8.64652 10.9098C7.73895 12.2239 6.7804 13.5043 5.83917 14.7963C5.64438 15.0633 5.36542 15.0675 5.16823 14.8118C3.80952 13.0482 2.47294 11.2701 1.37876 9.33297C0.83383 8.3679 0.359124 7.37375 0.11624 6.28858C-0.479667 3.62469 1.2715 0.860866 3.98218 0.180114C4.48527 0.05391 4.99364 -0.010365 5.48326 0.00136406ZM5.49095 14.0687C5.52558 14.0335 5.53905 14.0222 5.54915 14.0086C6.61736 12.6391 7.65286 11.2476 8.55898 9.76882C9.14431 8.81361 9.68443 7.83494 10.0144 6.76384C10.5651 4.97728 10.2279 3.37228 8.87305 2.03658C7.70625 0.886201 6.24846 0.53996 4.63629 0.782516C2.03863 1.17286 0.281209 3.68005 0.839602 6.17505C1.06084 7.16216 1.49707 8.0653 1.9915 8.94356C2.99285 10.7226 4.21016 12.3619 5.44478 13.9899C5.46257 14.0133 5.47508 14.041 5.49095 14.0687Z" fill="#A90303"/>
<path d="M5.51946 7.85654C3.94961 7.84341 2.71211 6.6128 2.72557 5.07864C2.73856 3.58343 4.02705 2.35892 5.56707 2.37815C7.11336 2.39739 8.35519 3.6341 8.34269 5.14245C8.33018 6.65221 7.06382 7.86921 5.51898 7.85654H5.51946ZM3.46288 5.09506C3.44605 6.20087 4.36997 7.11949 5.51609 7.13591C6.64635 7.15233 7.59672 6.24075 7.60634 5.13025C7.61596 4.02115 6.70502 3.11098 5.57044 3.09503C4.41326 3.07908 3.4802 3.96439 3.46288 5.09459V5.09506Z" fill="#A90303"/>
</g>
<defs>
<clipPath id="clip0_176_531">
<rect width="11" height="15" fill="white"/>
</clipPath>
</defs>
</svg>
