<svg width="32" height="32" viewBox="0 0 32 32" fill="none" xmlns="http://www.w3.org/2000/svg">
<path d="M10.8347 18.6666C11.4267 20.9669 13.5149 22.6666 16 22.6666C18.4851 22.6666 20.5733 20.9669 21.1653 18.6666M14.6903 3.68533L5.64719 10.7188C5.04269 11.189 4.74045 11.4241 4.5227 11.7185C4.32982 11.9793 4.18614 12.273 4.0987 12.5854C4 12.938 4 13.3209 4 14.0867V23.7333C4 25.2268 4 25.9735 4.29065 26.544C4.54631 27.0457 4.95426 27.4537 5.45603 27.7093C6.02646 28 6.77319 28 8.26667 28H23.7333C25.2268 28 25.9735 28 26.544 27.7093C27.0457 27.4537 27.4537 27.0457 27.7094 26.544C28 25.9735 28 25.2268 28 23.7333V14.0867C28 13.3209 28 12.938 27.9013 12.5854C27.8139 12.273 27.6702 11.9793 27.4773 11.7185C27.2596 11.4241 26.9573 11.189 26.3528 10.7188L17.3097 3.68533C16.8413 3.32099 16.6071 3.13883 16.3485 3.0688C16.1203 3.00701 15.8797 3.00701 15.6515 3.0688C15.3929 3.13883 15.1587 3.32099 14.6903 3.68533Z" stroke="#A90303" stroke-width="2" stroke-linecap="round" stroke-linejoin="round"/>
</svg>
