<svg width="92" height="92" viewBox="0 0 92 92" fill="none" xmlns="http://www.w3.org/2000/svg">
<path d="M66.9611 25.076C67.8989 24.1382 67.9045 22.61 66.899 21.7451C62.7271 18.1562 57.689 15.694 52.2651 14.6151C46.0541 13.3796 39.6162 14.0137 33.7655 16.4371C27.9149 18.8606 22.9142 22.9645 19.396 28.2299C15.8777 33.4954 13.9998 39.6859 13.9998 46.0186C13.9998 52.3513 15.8777 58.5417 19.396 63.8072C22.9142 69.0726 27.9149 73.1765 33.7655 75.6C39.6162 78.0234 46.0541 78.6575 52.2651 77.422C57.689 76.3431 62.7271 73.8809 66.899 70.292C67.9045 69.4271 67.8989 67.8989 66.9611 66.9611C66.0233 66.0233 64.5091 66.0326 63.4923 66.8841C60.0007 69.8082 55.82 71.818 51.3281 72.7115C46.0487 73.7616 40.5765 73.2227 35.6035 71.1628C30.6304 69.1028 26.3799 65.6145 23.3894 61.1389C20.3988 56.6633 18.8026 51.4013 18.8026 46.0186C18.8026 40.6358 20.3988 35.3738 23.3894 30.8982C26.3799 26.4226 30.6304 22.9343 35.6035 20.8744C40.5765 18.8144 46.0487 18.2755 51.3281 19.3256C55.82 20.2191 60.0007 22.2289 63.4923 25.153C64.5091 26.0045 66.0233 26.0138 66.9611 25.076Z" fill="url(#paint0_angular_56_384)"/>
<defs>
<radialGradient id="paint0_angular_56_384" cx="0" cy="0" r="1" gradientUnits="userSpaceOnUse" gradientTransform="translate(46.0185 46.0186) rotate(-60.9454) scale(29.1374 27.2362)">
<stop stop-color="white"/>
<stop offset="0.302083" stop-color="#37D300"/>
</radialGradient>
</defs>
</svg>
