<svg width="14" height="12" viewBox="0 0 14 12" fill="none" xmlns="http://www.w3.org/2000/svg">
<path d="M7 2.22454C9.41182 2.22454 11.5627 3.55927 12.6127 5.67102C12.2373 6.43551 11.7091 7.09347 11.0791 7.62611L11.9764 8.50966C12.8609 7.7389 13.5609 6.77389 14 5.67102C12.8991 2.9201 10.1818 0.971279 7 0.971279C6.19182 0.971279 5.41545 1.09661 4.68364 1.32846L5.73364 2.3624C6.14727 2.28094 6.56727 2.22454 7 2.22454ZM6.31909 2.9389L7.63636 4.23603C7.99909 4.39269 8.29182 4.68094 8.45091 5.03812L9.76818 6.33525C9.81909 6.12219 9.85727 5.89661 9.85727 5.66475C9.86364 4.1107 8.57818 2.85118 7 2.85118C6.76455 2.85118 6.54182 2.88251 6.31909 2.9389ZM0.642727 0.889817L2.34818 2.56919C1.31091 3.37128 0.49 4.43655 0 5.67102C1.10091 8.42193 3.81818 10.3708 7 10.3708C7.96727 10.3708 8.89636 10.189 9.74909 9.85692L11.9255 12L12.8227 11.1164L1.54 0L0.642727 0.889817ZM5.41545 5.58956L7.07636 7.22507C7.05091 7.23133 7.02545 7.2376 7 7.2376C6.12182 7.2376 5.40909 6.53577 5.40909 5.67102C5.40909 5.63969 5.41545 5.62089 5.41545 5.58956ZM3.25182 3.45901L4.36545 4.55561C4.21909 4.90026 4.13636 5.27624 4.13636 5.67102C4.13636 7.22507 5.42182 8.49086 7 8.49086C7.40091 8.49086 7.78273 8.4094 8.12636 8.26527L8.75 8.87937C8.19 9.02977 7.60455 9.11749 7 9.11749C4.58818 9.11749 2.43727 7.78277 1.38727 5.67102C1.83273 4.77493 2.48182 4.03551 3.25182 3.45901Z" fill="#D9D9D9"/>
</svg>
