<svg width="14" height="11" viewBox="0 0 14 11" fill="none" xmlns="http://www.w3.org/2000/svg">
<g clip-path="url(#clip0_176_525)">
<path d="M7.00023 0.000567091C8.8003 0.000567091 10.6004 -0.00100816 12.4005 0.00161726C13.2191 0.00266743 13.8385 0.522501 13.9792 1.32116C13.9982 1.42985 13.9992 1.54274 13.9992 1.65353C14.0002 4.21437 14.0007 6.77521 13.9992 9.33605C13.9992 10.3327 13.3475 10.999 12.3722 10.9995C8.79106 11.0011 5.21043 11.0011 1.62928 10.9995C0.65401 10.9995 0.00177221 10.3321 0.00125864 9.3371C0.000231495 6.77574 0.000231495 4.2149 0.00125864 1.65406C0.00177221 0.67005 0.655551 0.00214235 1.61901 0.00109218C3.41292 -0.00100816 5.20632 0.000567091 7.00023 0.000567091ZM0.616005 4.97522C0.616005 5.05818 0.616005 5.12907 0.616005 5.19996C0.616005 6.56885 0.616005 7.93722 0.616005 9.30612C0.616005 9.99923 0.981156 10.371 1.66215 10.371C5.22327 10.371 8.78438 10.371 12.3455 10.371C13.0147 10.371 13.3845 9.9966 13.3845 9.3182C13.385 7.943 13.3845 6.5678 13.3845 5.19261C13.3845 5.12277 13.3845 5.05293 13.3845 4.97522H0.616005ZM13.3778 2.64542H0.628845V4.31939H13.3778V2.64542ZM0.623709 1.99011H13.3701C13.3701 1.78165 13.3968 1.58212 13.3649 1.39257C13.2853 0.922091 12.8991 0.629619 12.3881 0.629619C8.79517 0.629094 5.20273 0.629619 1.60977 0.629619C1.57125 0.629619 1.53273 0.629619 1.49473 0.631719C1.05203 0.661124 0.678148 0.998228 0.627304 1.43405C0.606248 1.61363 0.623709 1.79741 0.623709 1.99064V1.99011Z" fill="#A90303"/>
<path d="M9.81393 7.57859C10.4415 7.57859 11.0691 7.57754 11.6967 7.57859C11.9422 7.57859 12.0772 7.69359 12.0757 7.89259C12.0742 8.0895 11.9355 8.20607 11.6915 8.20659C10.4297 8.20764 9.16837 8.20764 7.90652 8.20659C7.66206 8.20659 7.52801 8.08897 7.52955 7.88734C7.53058 7.68781 7.66257 7.57912 7.91217 7.57859C8.54643 7.57754 9.18018 7.57859 9.81444 7.57859H9.81393Z" fill="#A90303"/>
</g>
<defs>
<clipPath id="clip0_176_525">
<rect width="14" height="11" fill="white"/>
</clipPath>
</defs>
</svg>
