<svg width="16" height="15" viewBox="0 0 16 15" fill="none" xmlns="http://www.w3.org/2000/svg">
<path d="M11.3333 6.25V5C11.3333 3.27411 9.84091 1.875 7.99996 1.875C6.15901 1.875 4.66663 3.27411 4.66663 5V6.25M7.99996 9.0625V10.3125M5.86663 13.125H10.1333C11.2534 13.125 11.8134 13.125 12.2413 12.9206C12.6176 12.7409 12.9236 12.454 13.1153 12.1012C13.3333 11.7001 13.3333 11.1751 13.3333 10.125V9.25C13.3333 8.1999 13.3333 7.67485 13.1153 7.27377C12.9236 6.92096 12.6176 6.63413 12.2413 6.45436C11.8134 6.25 11.2534 6.25 10.1333 6.25H5.86663C4.74652 6.25 4.18647 6.25 3.75864 6.45436C3.38232 6.63413 3.07636 6.92096 2.88461 7.27377C2.66663 7.67485 2.66663 8.1999 2.66663 9.25V10.125C2.66663 11.1751 2.66663 11.7001 2.88461 12.1012C3.07636 12.454 3.38232 12.7409 3.75864 12.9206C4.18647 13.125 4.74652 13.125 5.86663 13.125Z" stroke="#A90303" stroke-linecap="round" stroke-linejoin="round"/>
</svg>
